<svg width="12" height="13" viewBox="0 0 12 13" fill="none" xmlns="http://www.w3.org/2000/svg">
<path d="M11.6466 10.9278C12.1153 11.3965 12.1153 12.1558 11.6466 12.6245C11.4141 12.8589 11.1066 12.9751 10.7992 12.9751C10.4917 12.9751 10.185 12.8579 9.95097 12.6236L5.99953 8.67418L2.04847 12.6226C1.81411 12.8589 1.50701 12.9751 1.19991 12.9751C0.892805 12.9751 0.586079 12.8589 0.351535 12.6226C-0.117178 12.1539 -0.117178 11.3946 0.351535 10.9259L4.30373 6.97369L0.351535 3.02338C-0.117178 2.55466 -0.117178 1.79535 0.351535 1.32663C0.820248 0.857919 1.57956 0.857919 2.04828 1.32663L5.99953 5.2807L9.95172 1.32851C10.4204 0.859794 11.1798 0.859794 11.6485 1.32851C12.1172 1.79722 12.1172 2.55654 11.6485 3.02525L7.69627 6.97744L11.6466 10.9278Z" fill="#333333"/>
</svg>
