<svg width="22" height="22" viewBox="0 0 22 22" fill="none" xmlns="http://www.w3.org/2000/svg">
<path d="M21.3082 7.15859C21.45 7.52813 21.3297 7.94492 21.0375 8.21562L19.177 9.90859C19.2242 10.2652 19.25 10.6305 19.25 11C19.25 11.3695 19.2242 11.7348 19.177 12.0914L21.0375 13.7844C21.3297 14.0551 21.45 14.4719 21.3082 14.8414C21.1191 15.3527 20.8914 15.8469 20.6336 16.3152L20.4316 16.6633C20.1481 17.1359 19.8301 17.5828 19.482 18.0082C19.2242 18.3133 18.8074 18.4207 18.4293 18.3004L16.0359 17.5355C15.4602 17.9781 14.7855 18.3477 14.1453 18.6313L13.6082 21.0848C13.5223 21.4715 13.2215 21.7465 12.8262 21.8496C12.2332 21.9484 11.623 22 10.9613 22C10.377 22 9.7668 21.9484 9.17383 21.8496C8.77851 21.7465 8.47773 21.4715 8.39179 21.0848L7.85468 18.6313C7.17578 18.3477 6.53984 17.9781 5.96406 17.5355L3.57241 18.3004C3.19257 18.4207 2.77363 18.3133 2.51925 18.0082C2.17077 17.5828 1.8528 17.1359 1.56921 16.6633L1.36812 16.3152C1.1073 15.8469 0.880421 15.3527 0.690069 14.8414C0.55085 14.4719 0.668155 14.0551 0.962921 13.7844L2.82175 12.0914C2.77448 11.7348 2.74999 11.3695 2.74999 11C2.74999 10.6305 2.77448 10.2652 2.82175 9.90859L0.962921 8.21562C0.668155 7.94492 0.55085 7.53242 0.690069 7.15859C0.880421 6.64727 1.10773 6.15313 1.36812 5.68477L1.56878 5.33672C1.8528 4.86406 2.17077 4.41719 2.51925 3.99395C2.77363 3.68672 3.19257 3.58016 3.57241 3.70133L5.96406 4.46445C6.53984 4.02016 7.17578 3.65062 7.85468 3.37004L8.39179 0.916523C8.47773 0.526367 8.77851 0.216562 9.17383 0.15082C9.7668 0.0516055 10.377 0 11 0C11.623 0 12.2332 0.0516055 12.8262 0.15082C13.2215 0.216562 13.5223 0.526367 13.6082 0.916523L14.1453 3.37004C14.7855 3.65062 15.4602 4.02016 16.0359 4.46445L18.4293 3.70133C18.8074 3.58016 19.2242 3.68672 19.482 3.99395C19.8301 4.41719 20.1481 4.86406 20.4316 5.33672L20.6336 5.68477C20.8914 6.15313 21.1191 6.64727 21.3082 7.15859ZM11 14.4375C12.8992 14.4375 14.4375 12.8992 14.4375 10.9613C14.4375 9.10078 12.8992 7.52383 11 7.52383C9.10078 7.52383 7.5625 9.10078 7.5625 10.9613C7.5625 12.8992 9.10078 14.4375 11 14.4375Z" fill="#333333"/>
</svg>
