<svg width="22" height="20" viewBox="0 0 22 20" fill="none" xmlns="http://www.w3.org/2000/svg">
<path d="M19.5556 1.22266H2.44444C1.09427 1.22266 0 2.31693 0 3.6671V15.8893C0 17.2395 1.09427 18.3338 2.44444 18.3338H19.5556C20.9057 18.3338 22 17.2395 22 15.8893V3.6671C22 2.31693 20.9038 1.22266 19.5556 1.22266ZM6.72222 4.88932C8.0724 4.88932 9.16667 5.98359 9.16667 7.33377C9.16667 8.68394 8.0724 9.77821 6.72222 9.77821C5.37205 9.77821 4.27778 8.68394 4.27778 7.33377C4.27778 5.98359 5.37396 4.88932 6.72222 4.88932ZM10.3889 14.6671H3.05556C2.71792 14.6671 2.44444 14.3921 2.44444 14.056C2.44444 12.3678 3.81257 11.0004 5.5 11.0004H7.94444C9.63188 11.0004 11 12.3686 11 14.056C11 14.3921 10.725 14.6671 10.3889 14.6671ZM18.9444 12.2227H14.0556C13.7194 12.2227 13.4444 11.9477 13.4444 11.6115C13.4444 11.2754 13.7194 11.0004 14.0556 11.0004H18.9444C19.2806 11.0004 19.5556 11.2754 19.5556 11.6115C19.5556 11.9477 19.2806 12.2227 18.9444 12.2227ZM18.9444 9.77821H14.0556C13.7194 9.77821 13.4444 9.50321 13.4444 9.1671C13.4444 8.83099 13.7194 8.55599 14.0556 8.55599H18.9444C19.2806 8.55599 19.5556 8.83099 19.5556 9.1671C19.5556 9.50321 19.2806 9.77821 18.9444 9.77821ZM18.9444 7.33377H14.0556C13.7194 7.33377 13.4444 7.05877 13.4444 6.72266C13.4444 6.38655 13.7194 6.11155 14.0556 6.11155H18.9444C19.2806 6.11155 19.5556 6.38655 19.5556 6.72266C19.5556 7.05877 19.2806 7.33377 18.9444 7.33377Z" fill="#333333"/>
</svg>
