<svg xmlns="http://www.w3.org/2000/svg" xmlns:xlink="http://www.w3.org/1999/xlink" version="1.1" width="1000" height="1000" viewBox="0 0 1000 1000" xml:space="preserve">
<desc>Created with Fabric.js 3.5.0</desc>
<defs>
</defs>
<rect x="0" y="0" width="100%" height="100%" fill="#ffffff"/>
<g transform="matrix(51.867 0 0 51.867 499.9999 500)" id="882135">
<path style="stroke: none; stroke-width: 1; stroke-dasharray: none; stroke-linecap: butt; stroke-dashoffset: 0; stroke-linejoin: miter; stroke-miterlimit: 4; is-custom-font: none; font-file-url: none; fill: rgb(51,51,51); fill-rule: nonzero; opacity: 1;" vector-effect="non-scaling-stroke" transform=" translate(-9.7363, -7.7637)" d="M 18.3359 13.6289 L 1.98438 0.859375 C 1.90234 0.804688 1.79297 0.777344 1.71094 0.777344 C 1.54688 0.777344 1.4375 0.832031 1.35547 0.914062 L 1.08203 1.26953 C 1.02734 1.35156 0.972656 1.43359 0.972656 1.54297 C 0.972656 1.67969 1.05469 1.81641 1.16406 1.87109 L 17.5156 14.668 C 17.5703 14.7227 17.6797 14.75 17.7617 14.75 C 17.9258 14.75 18.0352 14.6953 18.1172 14.5859 L 18.3906 14.2578 C 18.4453 14.1758 18.5 14.0938 18.5 13.9844 C 18.5 13.8477 18.418 13.7109 18.3359 13.6289 Z M 9.09375 4.76953 L 12.7852 7.64062 C 12.7305 6 11.3906 4.6875 9.75 4.6875 C 9.53125 4.71484 9.3125 4.71484 9.09375 4.76953 Z M 10.3789 10.7578 L 6.6875 7.88672 C 6.74219 9.52734 8.08203 10.8125 9.75 10.8125 C 9.94141 10.8125 10.1602 10.8125 10.3789 10.7578 Z M 9.75 3.8125 C 12.4297 3.8125 14.918 5.31641 16.2305 7.75 C 15.9023 8.37891 15.5195 8.92578 15.0273 9.41797 L 16.0664 10.2109 C 16.6406 9.60938 17.1328 8.92578 17.5156 8.16016 C 17.5703 8.05078 17.625 7.91406 17.625 7.77734 C 17.625 7.61328 17.5703 7.47656 17.5156 7.36719 C 16.0391 4.46875 13.0859 2.5 9.75 2.5 C 8.73828 2.5 7.78125 2.69141 6.87891 3.01953 L 8.13672 4.03125 C 8.65625 3.89453 9.20312 3.8125 9.75 3.8125 Z M 9.75 11.6875 C 7.04297 11.6875 4.55469 10.1836 3.24219 7.75 C 3.57031 7.14844 3.95312 6.60156 4.44531 6.10938 L 3.40625 5.31641 C 2.83203 5.91797 2.33984 6.60156 1.95703 7.36719 C 1.90234 7.47656 1.875 7.61328 1.875 7.75 C 1.875 7.91406 1.90234 8.05078 1.95703 8.16016 C 3.43359 11.0586 6.38672 13 9.75 13 C 10.7344 13 11.6914 12.8086 12.5938 12.5078 L 11.3359 11.4961 C 10.8164 11.6328 10.2695 11.6875 9.75 11.6875 Z" stroke-linecap="round"/>
</g>
</svg>