<svg width="22" height="22" viewBox="0 0 22 22" fill="none" xmlns="http://www.w3.org/2000/svg">
<path d="M6.875 17.875H4.125C3.36574 17.875 2.75 17.2593 2.75 16.5V5.5C2.75 4.74074 3.36574 4.125 4.125 4.125H6.875C7.63426 4.125 8.25 3.50926 8.25 2.75C8.25 1.99074 7.63555 1.375 6.875 1.375H4.125C1.8468 1.375 0 3.2218 0 5.5V16.5C0 18.7782 1.8468 20.625 4.125 20.625H6.875C7.63426 20.625 8.25 20.0093 8.25 19.25C8.25 18.4907 7.63555 17.875 6.875 17.875ZM21.5961 10.0289L16.0961 4.52891C15.5586 3.99137 14.6884 3.99223 14.1518 4.52891C13.6146 5.06602 13.6146 5.93613 14.1518 6.47324L17.3078 9.625H8.25C7.48945 9.625 6.875 10.2395 6.875 11C6.875 11.7605 7.48988 12.375 8.25 12.375H17.3078L14.1548 15.528C13.6177 16.0652 13.6177 16.9353 14.1548 17.4724C14.6919 18.0095 15.562 18.0095 16.0991 17.4724L21.5991 11.9724C22.1332 11.434 22.1332 10.566 21.5961 10.0289Z" fill="#333333"/>
</svg>
