<svg width="20" height="22" viewBox="0 0 20 22" fill="none" xmlns="http://www.w3.org/2000/svg">
<g clip-path="url(#clip0_492_2036)">
<path d="M4.8125 4.8125C4.8125 2.15445 6.96523 0 9.625 0C12.2848 0 14.4375 2.15445 14.4375 4.8125V6.875H17.1875C18.3262 6.875 19.25 7.79883 19.25 8.9375V17.875C19.25 20.1523 17.4023 22 15.125 22H4.125C1.8468 22 0 20.1523 0 17.875V8.9375C0 7.79883 0.923398 6.875 2.0625 6.875H4.8125V4.8125ZM6.875 6.875H12.375V4.8125C12.375 3.29355 11.1418 2.0625 9.625 2.0625C8.1082 2.0625 6.875 3.29355 6.875 4.8125V6.875ZM5.84375 11C6.41523 11 6.875 10.5402 6.875 9.96875C6.875 9.39727 6.41523 8.9375 5.84375 8.9375C5.27227 8.9375 4.8125 9.39727 4.8125 9.96875C4.8125 10.5402 5.27227 11 5.84375 11ZM13.4062 8.9375C12.8348 8.9375 12.375 9.39727 12.375 9.96875C12.375 10.5402 12.8348 11 13.4062 11C13.9777 11 14.4375 10.5402 14.4375 9.96875C14.4375 9.39727 13.9777 8.9375 13.4062 8.9375Z" fill="#333333"/>
</g>
<defs>
<clipPath id="clip0_492_2036">
<rect width="19.25" height="22" fill="white"/>
</clipPath>
</defs>
</svg>
