<svg width="22" height="20" viewBox="0 0 22 20" fill="none" xmlns="http://www.w3.org/2000/svg">
<path d="M19.5556 1.22266C20.9038 1.22266 22 2.31693 22 3.6671V4.88932H0V3.6671C0 2.31693 1.09427 1.22266 2.44444 1.22266H19.5556ZM22 15.8893C22 17.2376 20.9038 18.3338 19.5556 18.3338H2.44444C1.09427 18.3338 0 17.2376 0 15.8893V8.55599H22V15.8893ZM4.27778 13.4449C3.94167 13.4449 3.66667 13.7199 3.66667 14.056C3.66667 14.3921 3.94167 14.6671 4.27778 14.6671H6.72222C7.05833 14.6671 7.33333 14.3921 7.33333 14.056C7.33333 13.7199 7.05833 13.4449 6.72222 13.4449H4.27778ZM9.16667 14.6671H14.0556C14.3917 14.6671 14.6667 14.3921 14.6667 14.056C14.6667 13.7199 14.3917 13.4449 14.0556 13.4449H9.16667C8.83056 13.4449 8.55556 13.7199 8.55556 14.056C8.55556 14.3921 8.83056 14.6671 9.16667 14.6671Z" fill="#333333"/>
</svg>
