<svg width="14" height="14" viewBox="0 0 14 14" fill="none" xmlns="http://www.w3.org/2000/svg">
<path d="M14 7C14 10.8664 10.8664 14 7 14C3.13359 14 0 10.8664 0 7C0 3.13359 3.13359 0 7 0C10.8664 0 14 3.13359 14 7ZM4.8125 4.59375V9.40625C4.8125 9.64414 4.94102 9.86289 5.14883 9.97773C5.35391 10.0953 5.6082 10.0898 5.81055 9.9668L9.74805 7.56055C9.94219 7.44023 10.0625 7.22969 10.0625 7C10.0625 6.77031 9.94219 6.55977 9.74805 6.43945L5.81055 4.0332C5.6082 3.88555 5.35391 3.90469 5.14883 4.02227C4.94102 4.13711 4.8125 4.35586 4.8125 4.59375Z" fill="#333333"/>
</svg>
