<svg width="22" height="22" viewBox="0 0 22 22" fill="none" xmlns="http://www.w3.org/2000/svg">
<path d="M19.0492 12.0617C19.0925 11.715 19.125 11.3683 19.125 11C19.125 10.6317 19.0925 10.285 19.0492 9.93833L21.335 8.15083C21.5408 7.98833 21.595 7.69583 21.465 7.4575L19.2983 3.70917C19.2008 3.53583 19.0167 3.43833 18.8217 3.43833C18.7567 3.43833 18.6917 3.44917 18.6375 3.47083L15.94 4.55417C15.3767 4.12083 14.77 3.76333 14.1092 3.4925L13.6975 0.621667C13.665 0.361667 13.4375 0.166667 13.1667 0.166667H8.83333C8.5625 0.166667 8.335 0.361667 8.3025 0.621667L7.89083 3.4925C7.23 3.76333 6.62333 4.13167 6.06 4.55417L3.3625 3.47083C3.2975 3.44917 3.2325 3.43833 3.1675 3.43833C2.98333 3.43833 2.79917 3.53583 2.70167 3.70917L0.535 7.4575C0.394166 7.69583 0.459167 7.98833 0.665 8.15083L2.95083 9.93833C2.9075 10.285 2.875 10.6425 2.875 11C2.875 11.3575 2.9075 11.715 2.95083 12.0617L0.665 13.8492C0.459167 14.0117 0.405 14.3042 0.535 14.5425L2.70167 18.2908C2.79917 18.4642 2.98333 18.5617 3.17833 18.5617C3.24333 18.5617 3.30833 18.5508 3.3625 18.5292L6.06 17.4458C6.62333 17.8792 7.23 18.2367 7.89083 18.5075L8.3025 21.3783C8.335 21.6383 8.5625 21.8333 8.83333 21.8333H13.1667C13.4375 21.8333 13.665 21.6383 13.6975 21.3783L14.1092 18.5075C14.77 18.2367 15.3767 17.8683 15.94 17.4458L18.6375 18.5292C18.7025 18.5508 18.7675 18.5617 18.8325 18.5617C19.0167 18.5617 19.2008 18.4642 19.2983 18.2908L21.465 14.5425C21.595 14.3042 21.5408 14.0117 21.335 13.8492L19.0492 12.0617ZM16.9042 10.2092C16.9475 10.545 16.9583 10.7725 16.9583 11C16.9583 11.2275 16.9367 11.4658 16.9042 11.7908L16.7525 13.015L17.7167 13.7733L18.8867 14.6833L18.1283 15.9942L16.7525 15.4417L15.6258 14.9867L14.6508 15.7233C14.185 16.07 13.7408 16.33 13.2967 16.5142L12.1483 16.98L11.975 18.2042L11.7583 19.6667H10.2417L9.8625 16.98L8.71417 16.5142C8.24833 16.3192 7.815 16.07 7.38167 15.745L6.39583 14.9867L5.2475 15.4525L3.87167 16.005L3.11333 14.6942L4.28333 13.7842L5.2475 13.0258L5.09583 11.8017C5.06333 11.4658 5.04167 11.2167 5.04167 11C5.04167 10.7833 5.06333 10.5342 5.09583 10.2092L5.2475 8.985L4.28333 8.22667L3.11333 7.31667L3.87167 6.00583L5.2475 6.55833L6.37417 7.01333L7.34917 6.27667C7.815 5.93 8.25917 5.67 8.70333 5.48583L9.85167 5.02L10.025 3.79583L10.2417 2.33333H11.7475L12.1267 5.02L13.275 5.48583C13.7408 5.68083 14.1742 5.93 14.6075 6.255L15.5933 7.01333L16.7417 6.5475L18.1175 5.995L18.8758 7.30583L17.7167 8.22667L16.7525 8.985L16.9042 10.2092ZM11 6.66667C8.60583 6.66667 6.66667 8.60583 6.66667 11C6.66667 13.3942 8.60583 15.3333 11 15.3333C13.3942 15.3333 15.3333 13.3942 15.3333 11C15.3333 8.60583 13.3942 6.66667 11 6.66667ZM11 13.1667C9.80833 13.1667 8.83333 12.1917 8.83333 11C8.83333 9.80833 9.80833 8.83333 11 8.83333C12.1917 8.83333 13.1667 9.80833 13.1667 11C13.1667 12.1917 12.1917 13.1667 11 13.1667Z" fill="#333333"/>
</svg>
