<svg width="19" height="23" viewBox="0 0 19 23" fill="none" xmlns="http://www.w3.org/2000/svg">
<path d="M15.6842 4.31917L14.525 3.16L8.5125 9.1725V10.3425H9.6825L15.6842 4.31917ZM14.7308 0.570833C14.881 0.418852 15.0598 0.298186 15.2569 0.21583C15.454 0.133474 15.6655 0.0910672 15.8792 0.0910672C16.0928 0.0910672 16.3043 0.133474 16.5014 0.21583C16.6985 0.298186 16.8774 0.418852 17.0275 0.570833L18.2733 1.81667C18.9125 2.45583 18.9125 3.485 18.2733 4.11333L10.3867 12H6.83333V8.46833L14.7308 0.570833ZM10.8633 1.3725L8.89167 3.34417C5.31667 3.39833 2.5 6.16083 2.5 10.0608C2.5 12.5958 4.6125 15.9542 9 19.9625C13.3875 15.9542 15.5 12.6067 15.5 10.0608V9.9525L17.45 8.0025C17.5908 8.6525 17.6667 9.34583 17.6667 10.0608C17.6667 13.6575 14.7742 17.915 9 22.8442C3.22583 17.915 0.333333 13.6575 0.333333 10.0608C0.333333 4.66583 4.45 1.1775 9 1.1775C9.62833 1.1775 10.2567 1.2425 10.8633 1.3725Z" fill="#333333"/>
</svg>
