<svg width="39" height="30" viewBox="0 0 39 30" fill="none" xmlns="http://www.w3.org/2000/svg">
<path d="M20.2366 12.5491C20.2366 13.7009 19.5335 14.3638 18.2946 14.3638H16.6674V10.7344H18.3013C19.5335 10.7344 20.2366 11.3906 20.2366 12.5491ZM23.4174 16.7411C23.4174 17.2969 23.8996 17.6585 24.6563 17.6585C25.6205 17.6585 26.3438 17.0491 26.3438 16.192V15.6763L24.7701 15.7768C23.8795 15.8371 23.4174 16.1652 23.4174 16.7411ZM38.5714 3.21429V26.7857C38.5714 28.5603 37.1317 30 35.3571 30H3.21429C1.43973 30 0 28.5603 0 26.7857V3.21429C0 1.43973 1.43973 0 3.21429 0H35.3571C37.1317 0 38.5714 1.43973 38.5714 3.21429ZM8.55804 11.1295C9.12054 11.1763 9.68304 10.8482 10.0379 10.433C10.3862 10.0045 10.6138 9.42857 10.5536 8.84598C10.058 8.86607 9.44197 9.17411 9.08705 9.60268C8.76563 9.97098 8.49107 10.567 8.55804 11.1295ZM12.6161 16.1183C12.6027 16.1049 11.3036 15.6094 11.2902 14.1094C11.2768 12.8571 12.3147 12.2545 12.3616 12.221C11.7723 11.3504 10.8616 11.2567 10.5469 11.2366C9.72991 11.1897 9.03348 11.6987 8.64509 11.6987C8.25 11.6987 7.66072 11.2567 7.01786 11.2701C6.1808 11.2835 5.39732 11.7589 4.97545 12.5156C4.09821 14.029 4.74777 16.2656 5.59821 17.4978C6.01339 18.1071 6.51563 18.7768 7.17188 18.75C7.79464 18.7232 8.04241 18.3482 8.79241 18.3482C9.54911 18.3482 9.76339 18.75 10.4196 18.7433C11.1027 18.7299 11.5246 18.1339 11.9464 17.5246C12.4085 16.8281 12.6027 16.1585 12.6161 16.1183ZM21.683 12.5424C21.683 10.7612 20.4442 9.54241 18.6763 9.54241H15.2478V18.6763H16.6674V15.5558H18.6295C20.4241 15.5558 21.683 14.3237 21.683 12.5424ZM27.7098 14.1295C27.7098 12.8103 26.6518 11.9598 25.0313 11.9598C23.5246 11.9598 22.4129 12.8237 22.3728 14.0022H23.6518C23.7589 13.4397 24.2813 13.0714 24.9911 13.0714C25.8616 13.0714 26.3438 13.4732 26.3438 14.2232V14.7254L24.5759 14.8326C22.9286 14.933 22.0379 15.6094 22.0379 16.7812C22.0379 17.9665 22.9554 18.75 24.2746 18.75C25.1652 18.75 25.9888 18.3013 26.3638 17.5848H26.3906V18.683H27.7031V14.1295H27.7098ZM34.5536 12.0469H33.1138L31.4464 17.4442H31.4196L29.7522 12.0469H28.2589L30.6629 18.6964L30.5357 19.0982C30.3214 19.7812 29.9665 20.0491 29.3371 20.0491C29.2232 20.0491 29.0089 20.0357 28.9219 20.029V21.1272C29.0022 21.154 29.3571 21.1607 29.4643 21.1607C30.8504 21.1607 31.5 20.6317 32.0692 19.0312L34.5536 12.0469Z" fill="#333333"/>
</svg>
