<svg width="809" height="45" viewBox="0 0 809 45" fill="none" xmlns="http://www.w3.org/2000/svg">
<path d="M0 0H809V42C809 43.6569 807.657 45 806 45H3.00002C1.34316 45 0 43.6569 0 42V0Z" fill="#ECECEC"/>
<path d="M793.995 12H775.963C774.345 12 773 13.3453 773 15.0053V30.0317C773 31.6916 774.345 33.037 775.963 33.037H793.995C795.655 33.037 797 31.6916 797 30.0317V15.0053C797 13.3453 795.695 12 793.995 12ZM778.217 15.0053C779.462 15.0053 780.471 16.0144 780.471 17.2592C780.471 18.5041 779.504 19.5132 778.217 19.5132C776.931 19.5132 775.963 18.5041 775.963 17.2592C775.963 16.0144 777.014 15.0053 778.217 15.0053ZM793.948 29.6373C793.817 29.8814 793.563 30.0317 793.286 30.0317H776.851C776.569 30.0317 776.31 29.873 776.182 29.6208C776.054 29.3688 776.078 29.0662 776.244 28.8376L779.531 24.3296C779.673 24.1338 779.898 24.0211 780.138 24.0211C780.377 24.0211 780.604 24.1358 780.745 24.3298L782.269 26.4199L786.651 19.8881C786.792 19.64 787.027 19.5132 787.276 19.5132C787.524 19.5132 787.762 19.6387 787.901 19.8478L793.911 28.8636C794.066 29.0925 794.08 29.3884 793.948 29.6373Z" fill="#7A7A7A"/>
</svg>
