<svg width="12" height="12" viewBox="0 0 12 12" fill="none" xmlns="http://www.w3.org/2000/svg">
<path d="M11.6466 9.95266C12.1153 10.4214 12.1153 11.1807 11.6466 11.6494C11.4141 11.8838 11.1066 12 10.7992 12C10.4917 12 10.185 11.8828 9.95097 11.6485L5.99953 7.69909L2.04847 11.6475C1.81411 11.8838 1.50701 12 1.19991 12C0.892805 12 0.586079 11.8838 0.351535 11.6475C-0.117178 11.1788 -0.117178 10.4195 0.351535 9.95078L4.30373 5.99859L0.351535 2.04828C-0.117178 1.57956 -0.117178 0.820248 0.351535 0.351535C0.820248 -0.117178 1.57956 -0.117178 2.04828 0.351535L5.99953 4.3056L9.95172 0.35341C10.4204 -0.115303 11.1798 -0.115303 11.6485 0.35341C12.1172 0.822123 12.1172 1.58144 11.6485 2.05015L7.69627 6.00234L11.6466 9.95266Z" fill="#333333"/>
</svg>
