<svg width="14" height="14" viewBox="0 0 14 14" fill="none" xmlns="http://www.w3.org/2000/svg">
<path d="M0 7C0 3.13359 3.13359 0 7 0C10.8664 0 14 3.13359 14 7C14 10.8664 10.8664 14 7 14C3.13359 14 0 10.8664 0 7ZM10.1664 5.79141C10.4645 5.49336 10.4645 5.00664 10.1664 4.70859C9.86836 4.41055 9.38164 4.41055 9.08359 4.70859L6.125 7.66719L4.91641 6.45859C4.61836 6.16055 4.13164 6.16055 3.83359 6.45859C3.53555 6.75664 3.53555 7.24336 3.83359 7.54141L5.58359 9.29141C5.88164 9.58945 6.36836 9.58945 6.66641 9.29141L10.1664 5.79141Z" fill="#333333"/>
</svg>
