<svg width="39" height="30" viewBox="0 0 39 30" fill="none" xmlns="http://www.w3.org/2000/svg">
<path d="M34.3786 0C36.7489 0 38.676 1.91853 38.676 4.28571V6.42857H0V4.28571C0 1.91853 1.92373 0 4.29733 0H34.3786ZM38.676 25.7143C38.676 28.0781 36.7489 30 34.3786 30H4.29733C1.92373 30 0 28.0781 0 25.7143V12.8571H38.676V25.7143ZM7.52032 21.4286C6.92944 21.4286 6.44599 21.9107 6.44599 22.5C6.44599 23.0893 6.92944 23.5714 7.52032 23.5714H11.8177C12.4085 23.5714 12.892 23.0893 12.892 22.5C12.892 21.9107 12.4085 21.4286 11.8177 21.4286H7.52032ZM16.115 23.5714H24.7096C25.3005 23.5714 25.784 23.0893 25.784 22.5C25.784 21.9107 25.3005 21.4286 24.7096 21.4286H16.115C15.5241 21.4286 15.0406 21.9107 15.0406 22.5C15.0406 23.0893 15.5241 23.5714 16.115 23.5714Z" fill="#333333"/>
</svg>
