<svg width="15" height="15" viewBox="0 0 15 15" fill="none" xmlns="http://www.w3.org/2000/svg">
<path d="M12.8571 0C14.0391 0 15 0.959263 15 2.14286V12.8571C15 14.0391 14.0391 15 12.8571 15H2.14286C0.959263 15 0 14.0391 0 12.8571V2.14286C0 0.959263 0.959263 0 2.14286 0H12.8571ZM11.3772 6.02009C11.7422 5.65513 11.7422 5.05915 11.3772 4.6942C11.0123 4.32924 10.4163 4.32924 10.0513 4.6942L6.42857 8.31696L4.94866 6.83705C4.58371 6.4721 3.98772 6.4721 3.62277 6.83705C3.25681 7.20201 3.25681 7.79799 3.62277 8.16295L5.76562 10.3058C6.13058 10.6708 6.72656 10.6708 7.09152 10.3058L11.3772 6.02009Z" fill="#333333"/>
</svg>
