<svg width="20" height="12" viewBox="0 0 20 12" fill="none" xmlns="http://www.w3.org/2000/svg">
<path d="M1 0C1.55219 0 2 0.447812 2 1V11C2 11.5531 1.55219 12 1 12C0.447812 12 0 11.5531 0 11V1C0 0.447812 0.447812 0 1 0ZM7.70625 2.29375C8.09688 2.68437 8.09688 3.31563 7.70625 3.70625L6.41563 5H13.5844L12.2937 3.70625C11.9031 3.31563 11.9031 2.68437 12.2937 2.29375C12.6844 1.90312 13.3156 1.90312 13.7063 2.29375L16.7062 5.29375C17.0969 5.68437 17.0969 6.31563 16.7062 6.70625L13.7063 9.70625C13.3156 10.0969 12.6844 10.0969 12.2937 9.70625C11.9031 9.31563 11.9031 8.68437 12.2937 8.29375L13.5844 7H6.41563L7.70625 8.29375C8.09688 8.68437 8.09688 9.31563 7.70625 9.70625C7.31563 10.0969 6.68437 10.0969 6.29375 9.70625L3.29375 6.70625C2.9025 6.31563 2.9025 5.68437 3.29375 5.29375L6.29375 2.29375C6.68437 1.90312 7.31563 1.90312 7.70625 2.29375ZM20 11C20 11.5531 19.5531 12 19 12C18.4469 12 18 11.5531 18 11V1C18 0.447812 18.4469 0 19 0C19.5531 0 20 0.447812 20 1V11Z" fill="#FFDF00"/>
</svg>
