<svg width="23" height="20" viewBox="0 0 23 20" fill="none" xmlns="http://www.w3.org/2000/svg">
<path d="M19.9602 0H2.81737C1.27898 0 0 1.27902 0 2.85714V17.1429C0 18.721 1.27902 20 2.81696 20H19.9598C21.5379 20 22.817 18.721 22.817 17.1429V2.85714C22.8174 1.27902 21.5763 0 19.9602 0ZM4.96023 2.85714C6.14371 2.85714 7.10308 3.81652 7.10308 5C7.10308 6.18348 6.18344 7.14286 4.96023 7.14286C3.73701 7.14286 2.81737 6.18348 2.81737 5C2.81737 3.81652 3.81648 2.85714 4.96023 2.85714ZM19.9156 16.7679C19.7906 17 19.5495 17.1429 19.2861 17.1429H3.66157C3.39277 17.1429 3.14683 16.992 3.02496 16.7522C2.90308 16.5126 2.92608 16.225 3.08451 16.0076L6.20951 11.7219C6.34416 11.5357 6.55844 11.4286 6.78612 11.4286C7.0138 11.4286 7.2288 11.5375 7.36335 11.7221L8.81246 13.7091L12.9776 7.49929C13.112 7.26339 13.3352 7.14286 13.5718 7.14286C13.8084 7.14286 14.0339 7.26214 14.166 7.46094L19.8803 16.0324C20.0272 16.25 20.0406 16.5312 19.9156 16.7679Z" fill="#7A7A7A"/>
</svg>
