<svg width="67" height="48" viewBox="0 0 67 48" fill="none" xmlns="http://www.w3.org/2000/svg">
<rect x="2.5" y="4.25" width="63" height="39" rx="2.5" fill="white" stroke="#D5D5D5"/>
<path d="M39.6149 30.8775H28.1603V9.94824H39.6149V30.8775Z" fill="#6C6BBD"/>
<path d="M28.8874 20.4131C28.8874 16.1675 30.8426 12.3857 33.8873 9.94849C31.6608 8.1663 28.8508 7.10258 25.797 7.10258C18.5673 7.10258 12.7069 13.0618 12.7069 20.4131C12.7069 27.7644 18.5673 33.7236 25.797 33.7236C28.8508 33.7236 31.6608 32.6599 33.8873 30.8777C30.8426 28.4405 28.8874 24.6587 28.8874 20.4131Z" fill="#EB001B"/>
<path d="M55.0683 20.4131C55.0683 27.7644 49.2079 33.7236 41.9782 33.7236C38.9244 33.7236 36.1144 32.6599 33.8871 30.8777C36.9326 28.4405 38.8878 24.6587 38.8878 20.4131C38.8878 16.1675 36.9326 12.3857 33.8871 9.94849C36.1144 8.1663 38.9244 7.10258 41.9782 7.10258C49.2079 7.10258 55.0683 13.0618 55.0683 20.4131Z" fill="#0099DF"/>
<path d="M43.4905 36.7913C43.6428 36.7913 43.8617 36.8209 44.029 36.8878L43.7959 37.6122C43.6361 37.5453 43.4763 37.5233 43.3232 37.5233C42.8288 37.5233 42.5816 37.8483 42.5816 38.4322V40.4141H41.825V36.8802H42.5741V37.3092C42.7705 36.9986 43.0543 36.7913 43.4905 36.7913Z" fill="#231F20"/>
<path d="M40.6956 37.5826H39.4595V39.1794C39.4595 39.534 39.5827 39.7709 39.9614 39.7709C40.1579 39.7709 40.4051 39.7041 40.6298 39.5712L40.8479 40.2287C40.6082 40.3988 40.2303 40.5029 39.9032 40.5029C39.0084 40.5029 38.6963 40.0146 38.6963 39.1938V37.5826H37.9905V36.8802H38.6963V35.808H39.4595V36.8802H40.6956V37.5826Z" fill="#231F20"/>
<path fill-rule="evenodd" clip-rule="evenodd" d="M31.9544 36.791C32.9291 36.791 33.5983 37.545 33.6058 38.6468C33.6058 38.7492 33.5984 38.8442 33.591 38.9398L33.5908 38.9422H31.0097C31.1188 39.5777 31.5624 39.807 32.0493 39.807C32.3981 39.807 32.7693 39.6742 33.0598 39.4372L33.431 40.0067C33.009 40.3689 32.5296 40.5018 32.006 40.5018C30.9656 40.5018 30.224 39.7698 30.224 38.6468C30.224 37.545 30.9365 36.791 31.9544 36.791ZM31.9403 37.4782C31.4018 37.4782 31.0971 37.826 31.0164 38.3363H32.8201C32.7402 37.7887 32.4272 37.4782 31.9403 37.4782Z" fill="#231F20"/>
<path d="M36.9284 37.7823C36.7178 37.6486 36.2892 37.4785 35.8456 37.4785C35.4311 37.4785 35.1839 37.6342 35.1839 37.8931C35.1839 38.1292 35.4452 38.1961 35.7723 38.2401L36.1286 38.2917C36.8851 38.4034 37.3429 38.7284 37.3429 39.3495C37.3429 40.0223 36.7611 40.5029 35.7582 40.5029C35.1905 40.5029 34.667 40.3548 34.2525 40.0443L34.6087 39.4451C34.8634 39.6448 35.2421 39.8149 35.7657 39.8149C36.2817 39.8149 36.558 39.6601 36.558 39.3859C36.558 39.187 36.3616 39.0753 35.9471 39.0169L35.5909 38.9653C34.8126 38.8536 34.3906 38.499 34.3906 37.9227C34.3906 37.2204 34.9583 36.7913 35.8381 36.7913C36.3907 36.7913 36.8926 36.9174 37.2555 37.1611L36.9284 37.7823Z" fill="#231F20"/>
<path fill-rule="evenodd" clip-rule="evenodd" d="M47.0038 36.934C46.7741 36.8384 46.5244 36.791 46.2547 36.791C45.985 36.791 45.7353 36.8384 45.5056 36.934C45.2759 37.0288 45.0786 37.16 44.9121 37.3267C44.7457 37.4934 44.615 37.6906 44.5201 37.9174C44.4252 38.145 44.3778 38.3921 44.3778 38.6587C44.3778 38.9252 44.4252 39.1723 44.5201 39.4C44.615 39.6268 44.7457 39.8248 44.9121 39.9915C45.0786 40.1582 45.2759 40.2885 45.5056 40.3842C45.7353 40.4789 45.985 40.5263 46.2547 40.5263C46.5244 40.5263 46.7741 40.4789 47.0038 40.3842C47.2335 40.2885 47.4324 40.1582 47.5997 39.9915C47.7679 39.8248 47.8985 39.6268 47.9934 39.4C48.0883 39.1723 48.1358 38.9252 48.1358 38.6587C48.1358 38.3921 48.0883 38.145 47.9934 37.9174C47.8985 37.6906 47.7679 37.4934 47.5997 37.3267C47.4324 37.16 47.2335 37.0288 47.0038 36.934ZM45.821 37.6043C45.955 37.5493 46.099 37.5213 46.2547 37.5213C46.4103 37.5213 46.5552 37.5493 46.6883 37.6043C46.8223 37.6601 46.9389 37.738 47.0362 37.8378C47.1353 37.9377 47.2119 38.0578 47.2685 38.1975C47.3242 38.3371 47.3517 38.4911 47.3517 38.6587C47.3517 38.8271 47.3242 38.9802 47.2685 39.1199C47.2119 39.2595 47.1353 39.3797 47.0362 39.4795C46.9389 39.5794 46.8223 39.6572 46.6883 39.7131C46.5552 39.7689 46.4103 39.796 46.2547 39.796C46.099 39.796 45.955 39.7689 45.821 39.7131C45.6879 39.6572 45.5722 39.5794 45.4748 39.4795C45.3774 39.3797 45.3008 39.2595 45.2451 39.1199C45.1893 38.9802 45.1618 38.8271 45.1618 38.6587C45.1618 38.4911 45.1893 38.3371 45.2451 38.1975C45.3008 38.0578 45.3774 37.9377 45.4748 37.8378C45.5722 37.738 45.6879 37.6601 45.821 37.6043Z" fill="#231F20"/>
<path fill-rule="evenodd" clip-rule="evenodd" d="M29.4125 36.8799V38.6468V40.4138H28.6567V39.9847C28.4162 40.3029 28.0533 40.5026 27.5589 40.5026C26.5842 40.5026 25.821 39.7258 25.821 38.6468C25.821 37.567 26.5842 36.791 27.5589 36.791C28.0533 36.791 28.4162 36.9907 28.6567 37.3089V36.8799H29.4125ZM27.6529 37.5154C26.9987 37.5154 26.5983 38.0257 26.5983 38.6468C26.5983 39.268 26.9987 39.7774 27.6529 39.7774C28.278 39.7774 28.7 39.29 28.7 38.6468C28.7 38.0037 28.278 37.5154 27.6529 37.5154Z" fill="#231F20"/>
<path d="M25.1518 40.4141V38.1961C25.1518 37.3608 24.6283 36.7989 23.7851 36.7913C23.3415 36.7837 22.8829 36.9242 22.5633 37.4201C22.3235 37.0282 21.9448 36.7913 21.4138 36.7913C21.0434 36.7913 20.6797 36.9022 20.3959 37.316V36.8802H19.6401V40.4141H20.4034V38.455C20.4034 37.8415 20.738 37.5157 21.254 37.5157C21.7559 37.5157 22.0106 37.8483 22.0106 38.4474V40.4141H22.7738V38.455C22.7738 37.8415 23.1234 37.5157 23.6245 37.5157C24.1414 37.5157 24.3886 37.8483 24.3886 38.4474V40.4141H25.1518V40.4141Z" fill="#231F20"/>
</svg>
