<svg width="64" height="41" viewBox="0 0 64 41" fill="none" xmlns="http://www.w3.org/2000/svg">
<rect x="0.5" y="1.25" width="63" height="39" rx="2.5" fill="white" stroke="#D5D5D5"/>
<path fill-rule="evenodd" clip-rule="evenodd" d="M23.1 34.2838V36.0806V37.8774H22.3358V37.4411C22.0934 37.7647 21.7256 37.9678 21.2257 37.9678C20.2402 37.9678 19.4676 37.1787 19.4676 36.0806C19.4676 34.9834 20.2402 34.1934 21.2257 34.1934C21.7256 34.1934 22.0934 34.3965 22.3358 34.7201V34.2838H23.1ZM21.3208 34.93C20.6593 34.93 20.2545 35.449 20.2545 36.0806C20.2545 36.7122 20.6593 37.2311 21.3208 37.2311C21.9529 37.2311 22.3796 36.7346 22.3796 36.0806C22.3796 35.4266 21.9529 34.93 21.3208 34.93ZM48.9244 36.0806C48.9244 35.449 49.3292 34.93 49.9907 34.93C50.6236 34.93 51.0494 35.4266 51.0494 36.0806C51.0494 36.7346 50.6236 37.2311 49.9907 37.2311C49.3292 37.2311 48.9244 36.7122 48.9244 36.0806ZM51.7708 32.8406V36.0806V37.8774H51.0057V37.4411C50.7633 37.7647 50.3955 37.9678 49.8956 37.9678C48.9101 37.9678 48.1375 37.1787 48.1375 36.0806C48.1375 34.9834 48.9101 34.1934 49.8956 34.1934C50.3955 34.1934 50.7633 34.3965 51.0057 34.7201V32.8406H51.7708ZM32.5859 34.8931C33.0783 34.8931 33.3947 35.2089 33.4755 35.7648H31.6517C31.7334 35.2459 32.0414 34.8931 32.5859 34.8931ZM30.8505 36.0806C30.8505 34.9602 31.5709 34.1934 32.6011 34.1934C33.5858 34.1934 34.2625 34.9602 34.2701 36.0806C34.2701 36.1856 34.2625 36.2837 34.2549 36.3809H31.645C31.7553 37.0281 32.2038 37.2613 32.6962 37.2613C33.0488 37.2613 33.4242 37.1253 33.7188 36.8852L34.0933 37.4644C33.6666 37.8327 33.1818 37.9678 32.6524 37.9678C31.6004 37.9678 30.8505 37.2234 30.8505 36.0806ZM41.8286 36.0806C41.8286 35.449 42.2334 34.93 42.895 34.93C43.527 34.93 43.9537 35.4266 43.9537 36.0806C43.9537 36.7346 43.527 37.2311 42.895 37.2311C42.2334 37.2311 41.8286 36.7122 41.8286 36.0806ZM44.6742 34.2838V36.0806V37.8774H43.91V37.4411C43.6668 37.7647 43.2998 37.9678 42.7999 37.9678C41.8144 37.9678 41.0417 37.1787 41.0417 36.0806C41.0417 34.9834 41.8144 34.1934 42.7999 34.1934C43.2998 34.1934 43.6668 34.3965 43.91 34.7201V34.2838H44.6742ZM37.5128 36.0806C37.5128 37.1709 38.2551 37.9678 39.3879 37.9678C39.9172 37.9678 40.2699 37.8473 40.652 37.5392L40.285 36.9076C39.998 37.1184 39.6967 37.2311 39.3652 37.2311C38.755 37.2234 38.3064 36.7725 38.3064 36.0806C38.3064 35.3887 38.755 34.9378 39.3652 34.93C39.6967 34.93 39.998 35.0428 40.285 35.2536L40.652 34.622C40.2699 34.3139 39.9172 34.1934 39.3879 34.1934C38.2551 34.1934 37.5128 34.9903 37.5128 36.0806ZM46.4389 34.7201C46.6375 34.4042 46.9245 34.1934 47.3655 34.1934C47.5204 34.1934 47.7409 34.2235 47.91 34.2915L47.6744 35.0281C47.5128 34.9602 47.3512 34.9378 47.1964 34.9378C46.6964 34.9378 46.4465 35.2682 46.4465 35.8629V37.8774H45.6815V34.2838H46.4389V34.7201ZM26.8797 34.5695C26.5119 34.3216 26.0052 34.1934 25.4464 34.1934C24.556 34.1934 23.9828 34.6297 23.9828 35.344C23.9828 35.93 24.4095 36.2914 25.1956 36.4042L25.5566 36.4567C25.9758 36.5169 26.1736 36.6296 26.1736 36.8327C26.1736 37.1107 25.8941 37.269 25.3723 37.269C24.8429 37.269 24.4609 37.096 24.2033 36.893L23.8431 37.5014C24.2622 37.8172 24.7916 37.9678 25.3648 37.9678C26.3797 37.9678 26.968 37.479 26.968 36.7948C26.968 36.1632 26.5051 35.8328 25.7401 35.72L25.3799 35.6667C25.0491 35.6219 24.784 35.5548 24.784 35.3139C24.784 35.0505 25.034 34.893 25.4531 34.893C25.9017 34.893 26.336 35.066 26.5489 35.2011L26.8797 34.5695ZM35.8144 34.7201C36.0122 34.4042 36.2992 34.1934 36.7402 34.1934C36.895 34.1934 37.1155 34.2235 37.2847 34.2915L37.049 35.0281C36.8874 34.9602 36.7258 34.9378 36.571 34.9378C36.0711 34.9378 35.8211 35.2682 35.8211 35.8629V37.8774H35.0569V34.2838H35.8144V34.7201ZM30.2183 34.2838H28.9685V33.1935H28.1959V34.2838H27.4831V34.998H28.1959V36.6374C28.1959 37.4712 28.5124 37.9678 29.4163 37.9678C29.7479 37.9678 30.1299 37.8628 30.3723 37.6898L30.1518 37.0203C29.9237 37.1554 29.6738 37.2234 29.4752 37.2234C29.0931 37.2234 28.9685 36.9825 28.9685 36.6219V34.998H30.2183V34.2838ZM18.7917 35.6219V37.8774H18.0191V35.8775C18.0191 35.2682 17.7691 34.93 17.2473 34.93C16.7398 34.93 16.3872 35.2613 16.3872 35.8852V37.8774H15.6146V35.8775C15.6146 35.2682 15.3579 34.93 14.8504 34.93C14.3277 34.93 13.9894 35.2613 13.9894 35.8852V37.8774H13.2177V34.2837H13.9827V34.7269C14.2697 34.3061 14.6366 34.1933 15.012 34.1933C15.5489 34.1933 15.931 34.4343 16.1734 34.8327C16.4974 34.3285 16.9603 34.1856 17.4089 34.1933C18.2623 34.2011 18.7917 34.7725 18.7917 35.6219Z" fill="#231F20"/>
<path d="M38.2087 28.1769H26.6263V6.89355H38.2087V28.1769Z" fill="#FF5F00"/>
<path d="M27.3611 17.5356C27.3611 13.2181 29.3381 9.37229 32.4167 6.89388C30.1654 5.08154 27.3241 3.99982 24.2362 3.99982C16.9259 3.99982 11 10.0599 11 17.5356C11 25.0112 16.9259 31.0713 24.2362 31.0713C27.3241 31.0713 30.1654 29.9896 32.4167 28.1772C29.3381 25.6988 27.3611 21.853 27.3611 17.5356Z" fill="#EB001B"/>
<path d="M53.8344 17.5356C53.8344 25.0112 47.9085 31.0713 40.5982 31.0713C37.5102 31.0713 34.6689 29.9896 32.4167 28.1772C35.4962 25.6988 37.4732 21.853 37.4732 17.5356C37.4732 13.2181 35.4962 9.37229 32.4167 6.89388C34.6689 5.08154 37.5102 3.99982 40.5982 3.99982C47.9085 3.99982 53.8344 10.0599 53.8344 17.5356Z" fill="#F79E1B"/>
</svg>
