<svg width="18" height="22" viewBox="0 0 18 22" fill="none" xmlns="http://www.w3.org/2000/svg">
<path d="M15.5 4.5H13.3333C13.3333 2.10583 11.3942 0.166667 9 0.166667C6.60583 0.166667 4.66667 2.10583 4.66667 4.5H2.5C1.30833 4.5 0.333333 5.475 0.333333 6.66667V19.6667C0.333333 20.8583 1.30833 21.8333 2.5 21.8333H15.5C16.6917 21.8333 17.6667 20.8583 17.6667 19.6667V6.66667C17.6667 5.475 16.6917 4.5 15.5 4.5ZM9 2.33333C10.1917 2.33333 11.1667 3.30833 11.1667 4.5H6.83333C6.83333 3.30833 7.80833 2.33333 9 2.33333ZM15.5 19.6667H2.5V6.66667H4.66667V8.83333C4.66667 9.42917 5.15417 9.91667 5.75 9.91667C6.34583 9.91667 6.83333 9.42917 6.83333 8.83333V6.66667H11.1667V8.83333C11.1667 9.42917 11.6542 9.91667 12.25 9.91667C12.8458 9.91667 13.3333 9.42917 13.3333 8.83333V6.66667H15.5V19.6667Z" fill="#333333"/>
</svg>
