<svg width="39" height="30" viewBox="0 0 39 30" fill="none" xmlns="http://www.w3.org/2000/svg">
<path d="M12.4754 15.1473C12.4754 15.9643 11.8259 16.5871 11.0022 16.5871C10.3862 16.5871 9.9308 16.2388 9.9308 15.5826C9.9308 14.7656 10.567 14.1094 11.3839 14.1094C12.0067 14.1094 12.4754 14.4911 12.4754 15.1473ZM5.39063 11.8996H5.07589C4.97545 11.8996 4.875 11.9665 4.86161 12.0804L4.57366 13.8683L5.12277 13.8482C5.85938 13.8482 6.42857 13.7478 6.5625 12.8973C6.71652 12 6.14732 11.8996 5.39063 11.8996ZM24.4085 11.8996H24.1071C23.9866 11.8996 23.9063 11.9665 23.8929 12.0804L23.6116 13.8683L24.1473 13.8482C25.0179 13.8482 25.6205 13.6473 25.6205 12.6429C25.6138 11.933 24.9777 11.8996 24.4085 11.8996ZM38.5714 3.21429V26.7857C38.5714 28.5603 37.1317 30 35.3571 30H3.21429C1.43973 30 0 28.5603 0 26.7857V3.21429C0 1.43973 1.43973 0 3.21429 0H35.3571C37.1317 0 38.5714 1.43973 38.5714 3.21429ZM8.59152 12.2812C8.59152 10.875 7.5067 10.4062 6.26786 10.4062H3.58929C3.42188 10.4062 3.25446 10.5402 3.24107 10.721L2.14286 17.558C2.12277 17.692 2.22321 17.8259 2.35714 17.8259H3.62946C3.81027 17.8259 3.97768 17.6317 3.99777 17.4442L4.29911 15.6629C4.36607 15.1808 5.18304 15.3482 5.50446 15.3482C7.41964 15.3482 8.59152 14.2098 8.59152 12.2812ZM14.2299 12.8705H12.9576C12.7031 12.8705 12.6897 13.2388 12.6763 13.4196C12.2879 12.8504 11.7254 12.75 11.0893 12.75C9.44866 12.75 8.19643 14.1897 8.19643 15.7768C8.19643 17.0826 9.01339 17.933 10.3192 17.933C10.9219 17.933 11.6719 17.6049 12.0938 17.1362C12.0603 17.2366 12.0268 17.4509 12.0268 17.5513C12.0268 17.7054 12.0938 17.8192 12.2411 17.8192H13.3929C13.5737 17.8192 13.7277 17.625 13.7612 17.4375L14.4442 13.1317C14.4643 13.0045 14.3638 12.8705 14.2299 12.8705ZM16.942 19.4263L21.2076 13.2254C21.2411 13.192 21.2411 13.1585 21.2411 13.1116C21.2411 12.9978 21.1406 12.8772 21.0268 12.8772H19.7411C19.6272 12.8772 19.5067 12.9442 19.4397 13.0446L17.6652 15.6562L16.9286 13.1451C16.875 12.9978 16.7277 12.8772 16.5603 12.8772H15.308C15.1942 12.8772 15.0938 12.9978 15.0938 13.1116C15.0938 13.192 16.3996 16.9152 16.5134 17.2701C16.3326 17.5246 15.1406 19.1853 15.1406 19.3862C15.1406 19.5067 15.2411 19.6004 15.3549 19.6004H16.6406C16.7612 19.5938 16.875 19.5268 16.942 19.4263ZM27.6094 12.2812C27.6094 10.875 26.5246 10.4062 25.2857 10.4062H22.6272C22.4464 10.4062 22.279 10.5402 22.2589 10.721L21.1741 17.5513C21.1607 17.6853 21.2612 17.8192 21.3884 17.8192H22.7612C22.8951 17.8192 22.9955 17.7187 23.029 17.6049L23.3304 15.6629C23.3973 15.1808 24.2143 15.3482 24.5357 15.3482C26.4375 15.3482 27.6094 14.2098 27.6094 12.2812ZM33.2478 12.8705H31.9754C31.721 12.8705 31.7076 13.2388 31.6875 13.4196C31.3192 12.8504 30.75 12.75 30.1004 12.75C28.4598 12.75 27.2076 14.1897 27.2076 15.7768C27.2076 17.0826 28.0246 17.933 29.3304 17.933C29.9531 17.933 30.7031 17.6049 31.1049 17.1362C31.0848 17.2366 31.0379 17.4509 31.0379 17.5513C31.0379 17.7054 31.1049 17.8192 31.2522 17.8192H32.4107C32.5915 17.8192 32.7455 17.625 32.779 17.4375L33.4621 13.1317C33.4821 13.0045 33.3817 12.8705 33.2478 12.8705ZM36.4286 10.6406C36.4286 10.5067 36.3281 10.4062 36.2143 10.4062H34.9754C34.875 10.4062 34.7746 10.4866 34.7612 10.5871L33.6763 17.5513L33.6563 17.5848C33.6563 17.7054 33.7567 17.8192 33.8906 17.8192H34.9955C35.1629 17.8192 35.3304 17.625 35.3438 17.4375L36.4286 10.6607V10.6406ZM30.4018 14.1094C29.5848 14.1094 28.9487 14.7589 28.9487 15.5826C28.9487 16.2321 29.4174 16.5871 30.0335 16.5871C30.8371 16.5871 31.4866 15.971 31.4866 15.1473C31.4933 14.4911 31.0246 14.1094 30.4018 14.1094Z" fill="#333333"/>
</svg>
