<svg width="18" height="18" viewBox="0 0 18 18" fill="none" xmlns="http://www.w3.org/2000/svg">
<path d="M4.11589 2.58333C4.172 3.39917 4.31227 4.19667 4.53671 4.9575L3.41453 6.0575C3.03111 4.9575 2.78797 3.79333 2.70381 2.58333H4.11589ZM13.3365 13.6017C14.1314 13.8217 14.945 13.9592 15.7679 14.0142V15.38C14.5335 15.2975 13.3458 15.0592 12.2143 14.6925L13.3365 13.6017ZM5.01364 0.75H1.7406C1.22627 0.75 0.80545 1.1625 0.80545 1.66667C0.80545 10.2742 7.92196 17.25 16.703 17.25C17.2174 17.25 17.6382 16.8375 17.6382 16.3333V13.1342C17.6382 12.63 17.2174 12.2175 16.703 12.2175C15.5435 12.2175 14.4119 12.0342 13.3645 11.695C13.271 11.6583 13.1682 11.6492 13.0746 11.6492C12.8315 11.6492 12.5977 11.7408 12.4107 11.915L10.3534 13.9317C7.70687 12.6025 5.53732 10.485 4.1907 7.89083L6.24804 5.87417C6.50988 5.6175 6.58469 5.26 6.48182 4.93917C6.13582 3.9125 5.94879 2.8125 5.94879 1.66667C5.94879 1.1625 5.52797 0.75 5.01364 0.75Z" fill="#333333"/>
</svg>
