<svg width="334" height="40" viewBox="0 0 334 40" fill="none" xmlns="http://www.w3.org/2000/svg">
<path d="M0 0H334V37C334 38.6569 332.657 40 331 40H3.00001C1.34315 40 0 38.6569 0 37V0Z" fill="#ECECEC"/>
<path d="M320.96 10H303.817C302.279 10 301 11.279 301 12.8571V27.1429C301 28.721 302.279 30 303.817 30H320.96C322.538 30 323.817 28.721 323.817 27.1429V12.8571C323.817 11.279 322.576 10 320.96 10ZM305.96 12.8571C307.144 12.8571 308.103 13.8165 308.103 15C308.103 16.1835 307.183 17.1429 305.96 17.1429C304.737 17.1429 303.817 16.1835 303.817 15C303.817 13.8165 304.816 12.8571 305.96 12.8571ZM320.916 26.7679C320.791 27 320.55 27.1429 320.286 27.1429H304.662C304.393 27.1429 304.147 26.992 304.025 26.7522C303.903 26.5126 303.926 26.225 304.085 26.0076L307.21 21.7219C307.344 21.5357 307.558 21.4286 307.786 21.4286C308.014 21.4286 308.229 21.5375 308.363 21.7221L309.812 23.7091L313.978 17.4993C314.112 17.2634 314.335 17.1429 314.572 17.1429C314.808 17.1429 315.034 17.2621 315.166 17.4609L320.88 26.0324C321.027 26.25 321.041 26.5313 320.916 26.7679Z" fill="#7A7A7A"/>
</svg>
