<svg width="64" height="41" viewBox="0 0 64 41" fill="none" xmlns="http://www.w3.org/2000/svg">
<rect x="0.5" y="1.25" width="63" height="39" rx="2.5" fill="white" stroke="#D5D5D5"/>
<path d="M27.3066 28.4691H23L25.6936 12H30L27.3066 28.4691Z" fill="#15195A"/>
<path d="M43 12.6787C42.1452 12.3562 40.7894 12 39.113 12C34.8333 12 31.8196 14.1708 31.8011 17.2743C31.7655 19.5641 33.9588 20.8359 35.5992 21.5994C37.2759 22.3796 37.8458 22.8888 37.8458 23.5842C37.8288 24.6523 36.491 25.1446 35.2433 25.1446C33.5131 25.1446 32.586 24.8908 31.1771 24.2966L30.6064 24.0418L30 27.6206C31.0164 28.061 32.8891 28.4519 34.8333 28.4691C39.3805 28.4691 42.3409 26.3319 42.376 23.0245C42.3933 21.2097 41.2352 19.8191 38.7383 18.6827C37.2226 17.9533 36.2943 17.4614 36.2943 16.7151C36.3121 16.0366 37.0794 15.3416 38.7905 15.3416C40.1993 15.3076 41.2345 15.6297 42.0187 15.952L42.4106 16.1213L43 12.6787Z" fill="#15195A"/>
<path fill-rule="evenodd" clip-rule="evenodd" d="M50.3434 12.2852H53.6017L57 28.0243H53.0998C53.0998 28.0243 52.7181 26.2159 52.5971 25.6633H47.1888C47.0324 26.0817 46.3047 28.0243 46.3047 28.0243H41.8848L48.1418 13.5911C48.5753 12.5696 49.3386 12.2852 50.3434 12.2852ZM50.0839 18.0449C50.0839 18.0449 48.7491 21.5444 48.4022 22.4486H51.9034C51.7302 21.6617 50.9325 17.8942 50.9325 17.8942L50.6381 16.538C50.5142 16.8873 50.3349 17.3674 50.214 17.6912C50.132 17.9107 50.0769 18.0585 50.0839 18.0449Z" fill="#15195A"/>
<path fill-rule="evenodd" clip-rule="evenodd" d="M5.06933 12.2852H11.8466C12.7652 12.3183 13.5106 12.603 13.7532 13.6082L15.2259 20.8389C15.2261 20.8396 15.2263 20.8404 15.2266 20.8412L15.6774 23.0179L19.8027 12.2852H24.2569L17.6358 28.0078H13.1813L9.42686 14.3318C8.13144 13.6001 6.65299 13.0116 5 12.6032L5.06933 12.2852Z" fill="#15195A"/>
</svg>
