<svg width="18" height="18" viewBox="0 0 18 18" fill="none" xmlns="http://www.w3.org/2000/svg">
<path d="M7.56226 9.56264H2.78103C2.32611 9.56264 1.91513 9.83675 1.74181 10.257C1.59873 10.6771 1.69541 11.1622 2.01709 11.4822L3.07388 12.539L0.329594 15.2836C-0.109858 15.723 -0.109858 16.4349 0.329552 16.8744L1.12478 17.6696C1.56423 18.1091 2.2765 18.1091 2.71595 17.6697L5.46023 14.925L6.51703 15.9818C6.73236 16.1972 7.02011 16.3111 7.31261 16.3111C7.45763 16.3111 7.60367 16.2834 7.74327 16.2257C8.16409 16.0516 8.4376 15.6414 8.4376 15.1865V10.4064C8.406 9.93881 8.06148 9.56264 7.56226 9.56264ZM10.4064 8.43764H15.1876C15.6425 8.43764 16.0535 8.16353 16.2268 7.74331C16.4015 7.32249 16.3048 6.83909 15.9829 6.51741L14.9261 5.46062L17.6704 2.71599C18.1099 2.27653 18.1099 1.56427 17.6704 1.12482L16.8752 0.32959C16.4357 -0.109861 15.7235 -0.109861 15.284 0.329579L12.5397 3.07422L11.4829 2.01742C11.1611 1.69606 10.6789 1.60118 10.2571 1.77355C9.83623 1.94767 9.56272 2.35784 9.56272 2.81276V7.56235C9.56264 8.06147 9.93881 8.43764 10.4064 8.43764Z" fill="#FFDF00"/>
</svg>
