<svg width="18" height="18" viewBox="0 0 18 18" fill="none" xmlns="http://www.w3.org/2000/svg">
<path d="M17.9719 13.6057L17.1545 17.1494C17.0397 17.6504 16.5994 18.0009 16.0836 18.0009C7.21406 18.0002 0 10.7861 0 1.91622C0 1.40083 0.350473 0.959971 0.851484 0.845714L4.39523 0.0283319C4.91133 -0.0912695 5.43867 0.176621 5.65313 0.665362L7.28859 4.47981C7.47977 4.92911 7.35082 5.45258 6.97289 5.76126L5.08008 7.28106C6.27469 9.71457 8.25328 11.6932 10.6875 12.8885L12.2372 10.9971C12.5426 10.6181 13.07 10.487 13.5193 10.6815L17.3338 12.3167C17.7926 12.558 18.0914 13.0924 17.9719 13.6057Z" fill="#333333"/>
</svg>
